<svg xmlns="http://www.w3.org/2000/svg" viewBox="0 0 1980 880" width="1980" height="880">
<defs>
<marker id="arrow" viewBox="0 0 10 10" refX="8.5" refY="5" markerWidth="7.5" markerHeight="7.5" orient="auto"><path d="M0,0 L10,5 L0,10 z" fill="#3c4043"/></marker>
</defs>
<rect x="0" y="0" width="1980" height="880" fill="#ffffff"/>
<rect x="60" y="280" width="340" height="210" fill="none" stroke="#9aa0a6" stroke-width="1.5"/>
<text x="70" y="302" font-family="Helvetica Neue, Arial, sans-serif" font-size="15" fill="#5f6368">/pf</text>
<rect x="90" y="320" width="280" height="150" fill="none" stroke="#9aa0a6" stroke-width="1.5"/>
<text x="100" y="342" font-family="Helvetica Neue, Arial, sans-serif" font-size="15" fill="#5f6368">/pf/pose</text>
<rect x="630" y="385" width="1290" height="430" fill="none" stroke="#9aa0a6" stroke-width="1.5"/>
<text x="640" y="407" font-family="Helvetica Neue, Arial, sans-serif" font-size="15" fill="#5f6368">/sim</text>
<rect x="1560" y="415" width="320" height="115" fill="none" stroke="#9aa0a6" stroke-width="1.5"/>
<text x="1570" y="437" font-family="Helvetica Neue, Arial, sans-serif" font-size="15" fill="#5f6368">/sim/ego_racecar</text>
<path d="M231.3,165.4 Q310.3,136.0 389.4,106.7" fill="none" stroke="#333" stroke-width="1.3" marker-end="url(#arrow)"/>
<path d="M386.8,97.0 Q307.8,126.4 228.7,155.7" fill="none" stroke="#333" stroke-width="1.3" marker-end="url(#arrow)"/>
<path d="M229.7,182.8 Q317.4,190.7 405.0,198.6" fill="none" stroke="#333" stroke-width="1.3" marker-end="url(#arrow)"/>
<path d="M405.5,188.6 Q317.9,180.7 230.3,172.8" fill="none" stroke="#333" stroke-width="1.3" marker-end="url(#arrow)"/>
<path d="M615.0,305.0 Q672.5,305.0 730.0,305.0" fill="none" stroke="#333" stroke-width="1.3" marker-end="url(#arrow)"/>
<path d="M541.3,617.0 Q651.7,471.3 762.1,325.6" fill="none" stroke="#333" stroke-width="1.3" marker-end="url(#arrow)"/>
<path d="M731.5,309.8 Q533.2,350.7 335.0,391.6" fill="none" stroke="#333" stroke-width="1.3" marker-end="url(#arrow)"/>
<path d="M250.0,435.0 Q265.6,486.6 281.3,538.1" fill="none" stroke="#333" stroke-width="1.3" marker-end="url(#arrow)"/>
<path d="M930.0,310.0 Q1017.5,310.0 1105.0,310.0" fill="none" stroke="#333" stroke-width="1.3" marker-end="url(#arrow)"/>
<path d="M1105.0,300.0 Q1017.5,300.0 930.0,300.0" fill="none" stroke="#333" stroke-width="1.3" marker-end="url(#arrow)"/>
<path d="M1690.0,300.0 Q1442.5,300.0 1195.0,300.0" fill="none" stroke="#333" stroke-width="1.3" marker-end="url(#arrow)"/>
<path d="M1195.0,310.0 Q1442.5,310.0 1690.0,310.0" fill="none" stroke="#333" stroke-width="1.3" marker-end="url(#arrow)"/>
<path d="M1024.4,440.4 Q1065.7,414.8 1107.0,329.3" fill="none" stroke="#333" stroke-width="1.3" marker-end="url(#arrow)"/>
<path d="M1103.0,320.1 Q1061.7,405.7 1020.4,431.2" fill="none" stroke="#333" stroke-width="1.3" marker-end="url(#arrow)"/>
<path d="M1011.9,492.3 Q1061.8,428.3 1111.6,334.3" fill="none" stroke="#333" stroke-width="1.3" marker-end="url(#arrow)"/>
<path d="M1106.4,325.7 Q1056.5,419.7 1006.7,483.8" fill="none" stroke="#333" stroke-width="1.3" marker-end="url(#arrow)"/>
<path d="M964.0,540.8 Q1041.0,420.4 1118.0,330.0" fill="none" stroke="#333" stroke-width="1.3" marker-end="url(#arrow)"/>
<path d="M993.4,548.6 Q1071.7,505.8 1150.0,463.0" fill="none" stroke="#333" stroke-width="1.3" marker-end="url(#arrow)"/>
<path d="M805.0,640.0 Q980.0,640.0 1155.0,640.0" fill="none" stroke="#333" stroke-width="1.3" marker-end="url(#arrow)"/>
<path d="M1235.0,615.0 Q1235.0,554.0 1235.0,523.0" fill="none" stroke="#333" stroke-width="1.3" marker-end="url(#arrow)"/>
<path d="M1225.0,523.0 Q1225.0,554.0 1225.0,615.0" fill="none" stroke="#333" stroke-width="1.3" marker-end="url(#arrow)"/>
<path d="M1304.0,636.0 Q1474.5,604.1 1645.0,572.2" fill="none" stroke="#333" stroke-width="1.3" marker-end="url(#arrow)"/>
<path d="M1302.5,636.5 Q1478.9,582.1 1655.3,497.7" fill="none" stroke="#333" stroke-width="1.3" marker-end="url(#arrow)"/>
<path d="M1652.1,488.3 Q1475.6,572.7 1299.2,627.1" fill="none" stroke="#333" stroke-width="1.3" marker-end="url(#arrow)"/>
<path d="M1195.0,318.0 Q1417.8,357.5 1640.5,447.0" fill="none" stroke="#333" stroke-width="1.3" marker-end="url(#arrow)"/>
<path d="M825.0,735.0 Q992.5,735.0 1160.0,735.0" fill="none" stroke="#333" stroke-width="1.3" marker-end="url(#arrow)"/>
<path d="M1160.0,725.0 Q992.5,725.0 825.0,725.0" fill="none" stroke="#333" stroke-width="1.3" marker-end="url(#arrow)"/>
<path d="M1300.0,735.0 Q1435.0,735.0 1570.0,735.0" fill="none" stroke="#333" stroke-width="1.3" marker-end="url(#arrow)"/>
<path d="M1570.0,725.0 Q1435.0,725.0 1300.0,725.0" fill="none" stroke="#333" stroke-width="1.3" marker-end="url(#arrow)"/>
<ellipse cx="150" cy="55" rx="135.0" ry="28.0" fill="#ffffff" stroke="#3c4043" stroke-width="1.6"/>
<text x="150" y="60" text-anchor="middle" font-family="Helvetica Neue, Arial, sans-serif" font-size="15.5" font-weight="600" fill="#202124">/waypoint_visualizer_node</text>
<ellipse cx="480" cy="95" rx="95.0" ry="27.0" fill="#ffffff" stroke="#3c4043" stroke-width="1.6"/>
<text x="480" y="100" text-anchor="middle" font-family="Helvetica Neue, Arial, sans-serif" font-size="15.5" font-weight="600" fill="#202124">/map_server</text>
<rect x="120.0" y="150.0" width="110" height="50" fill="#ffffff" stroke="#3c4043" stroke-width="1.6"/>
<text x="175" y="180" text-anchor="middle" font-family="Helvetica Neue, Arial, sans-serif" font-size="15.5" font-weight="600" fill="#202124">/bond</text>
<ellipse cx="570" cy="195" rx="165.0" ry="27.0" fill="#ffffff" stroke="#3c4043" stroke-width="1.6"/>
<text x="570" y="200" text-anchor="middle" font-family="Helvetica Neue, Arial, sans-serif" font-size="13.5" font-weight="600" fill="#202124">/lifecycle_manager_localization</text>
<rect x="125.0" y="385.0" width="210" height="50" fill="#ffffff" stroke="#3c4043" stroke-width="1.6"/>
<text x="230" y="415" text-anchor="middle" font-family="Helvetica Neue, Arial, sans-serif" font-size="15.5" font-weight="600" fill="#202124">/pf/pose/odom</text>
<ellipse cx="350" cy="560" rx="110.0" ry="28.0" fill="#ffffff" stroke="#3c4043" stroke-width="1.6"/>
<text x="350" y="565" text-anchor="middle" font-family="Helvetica Neue, Arial, sans-serif" font-size="15.5" font-weight="600" fill="#202124">/lqr_pid_node</text>
<rect x="425.0" y="282.0" width="190" height="46" fill="#ffffff" stroke="#3c4043" stroke-width="1.6"/>
<text x="520" y="310" text-anchor="middle" font-family="Helvetica Neue, Arial, sans-serif" font-size="15.5" font-weight="600" fill="#202124">/clicked_point</text>
<rect x="435.0" y="617.0" width="170" height="46" fill="#ffffff" stroke="#3c4043" stroke-width="1.6"/>
<text x="520" y="645" text-anchor="middle" font-family="Helvetica Neue, Arial, sans-serif" font-size="15.5" font-weight="600" fill="#202124">/initialpose</text>
<ellipse cx="830" cy="305" rx="100.0" ry="28.0" fill="#ffffff" stroke="#3c4043" stroke-width="1.6"/>
<text x="830" y="310" text-anchor="middle" font-family="Helvetica Neue, Arial, sans-serif" font-size="15.5" font-weight="600" fill="#202124">/particle_filter</text>
<rect x="1105.0" y="280.0" width="90" height="50" fill="#ffffff" stroke="#3c4043" stroke-width="1.6"/>
<text x="1150" y="310" text-anchor="middle" font-family="Helvetica Neue, Arial, sans-serif" font-size="15.5" font-weight="600" fill="#202124">/tf</text>
<ellipse cx="1830" cy="305" rx="140.0" ry="27.0" fill="#ffffff" stroke="#3c4043" stroke-width="1.6"/>
<text x="1830" y="310" text-anchor="middle" font-family="Helvetica Neue, Arial, sans-serif" font-size="13.5" font-weight="600" fill="#202124">/transform_listener_impl_5d6ea25c5040</text>
<ellipse cx="830" cy="445" rx="210.0" ry="23.0" fill="#ffffff" stroke="#3c4043" stroke-width="1.6"/>
<text x="830" y="450" text-anchor="middle" font-family="Helvetica Neue, Arial, sans-serif" font-size="13.5" font-weight="600" fill="#202124">/sim/transform_listener_impl_fbeca4aed410</text>
<ellipse cx="830" cy="500" rx="210.0" ry="23.0" fill="#ffffff" stroke="#3c4043" stroke-width="1.6"/>
<text x="830" y="505" text-anchor="middle" font-family="Helvetica Neue, Arial, sans-serif" font-size="13.5" font-weight="600" fill="#202124">/sim/transform_listener_impl_64c97b334200</text>
<ellipse cx="830" cy="555" rx="170.0" ry="23.0" fill="#ffffff" stroke="#3c4043" stroke-width="1.6"/>
<text x="830" y="560" text-anchor="middle" font-family="Helvetica Neue, Arial, sans-serif" font-size="15.5" font-weight="600" fill="#202124">/sim/ego_robot_state_publisher</text>
<rect x="655.0" y="617.0" width="150" height="46" fill="#ffffff" stroke="#3c4043" stroke-width="1.6"/>
<text x="730" y="645" text-anchor="middle" font-family="Helvetica Neue, Arial, sans-serif" font-size="15.5" font-weight="600" fill="#202124">/sim/drive</text>
<ellipse cx="730" cy="730" rx="95.0" ry="25.0" fill="#ffffff" stroke="#3c4043" stroke-width="1.6"/>
<text x="730" y="735" text-anchor="middle" font-family="Helvetica Neue, Arial, sans-serif" font-size="15.5" font-weight="600" fill="#202124">/sim/map_server</text>
<rect x="1115.0" y="417.0" width="230" height="46" fill="#ffffff" stroke="#3c4043" stroke-width="1.6"/>
<text x="1230" y="445" text-anchor="middle" font-family="Helvetica Neue, Arial, sans-serif" font-size="15.5" font-weight="600" fill="#202124">/sim/ego_robot_description</text>
<rect x="1160.0" y="477.0" width="140" height="46" fill="#ffffff" stroke="#3c4043" stroke-width="1.6"/>
<text x="1230" y="505" text-anchor="middle" font-family="Helvetica Neue, Arial, sans-serif" font-size="15.5" font-weight="600" fill="#202124">/sim/map</text>
<ellipse cx="1230" cy="640" rx="75.0" ry="25.0" fill="#ffffff" stroke="#3c4043" stroke-width="1.6"/>
<text x="1230" y="645" text-anchor="middle" font-family="Helvetica Neue, Arial, sans-serif" font-size="15.5" font-weight="600" fill="#202124">/sim/bridge</text>
<rect x="1160.0" y="707.0" width="140" height="46" fill="#ffffff" stroke="#3c4043" stroke-width="1.6"/>
<text x="1230" y="735" text-anchor="middle" font-family="Helvetica Neue, Arial, sans-serif" font-size="15.5" font-weight="600" fill="#202124">/sim/bond</text>
<rect x="1605.0" y="447.0" width="230" height="46" fill="#ffffff" stroke="#3c4043" stroke-width="1.6"/>
<text x="1720" y="475" text-anchor="middle" font-family="Helvetica Neue, Arial, sans-serif" font-size="15.5" font-weight="600" fill="#202124">/sim/ego_racecar/odom</text>
<rect x="1645.0" y="537.0" width="150" height="46" fill="#ffffff" stroke="#3c4043" stroke-width="1.6"/>
<text x="1720" y="565" text-anchor="middle" font-family="Helvetica Neue, Arial, sans-serif" font-size="15.5" font-weight="600" fill="#202124">/sim/scan</text>
<ellipse cx="1740" cy="730" rx="170.0" ry="25.0" fill="#ffffff" stroke="#3c4043" stroke-width="1.6"/>
<text x="1740" y="735" text-anchor="middle" font-family="Helvetica Neue, Arial, sans-serif" font-size="13.5" font-weight="600" fill="#202124">/sim/lifecycle_manager_localization</text>
</svg>